<?xml version="1.0"?>
<svg xmlns="http://www.w3.org/2000/svg" xmlns:xlink="http://www.w3.org/1999/xlink" xmlns:svgjs="http://svgjs.com/svgjs" version="1.1" width="512" height="512" x="0" y="0" viewBox="0 0 578.405 578.405" style="enable-background:new 0 0 512 512" xml:space="preserve" class=""><circle r="289.2025" cx="289.2025" cy="289.2025" fill="#ffffff" shape="circle" transform="matrix(0.69,0,0,0.69,89.65277954101563,89.65277954101563)"/><g transform="matrix(0.7,0,0,0.7,86.76075439453126,86.76075439453126)">
<g xmlns="http://www.w3.org/2000/svg">
	<g>
		<path d="M289.203,0C129.736,0,0,129.736,0,289.203C0,448.67,129.736,578.405,289.203,578.405    c159.467,0,289.202-129.735,289.202-289.202C578.405,129.736,448.67,0,289.203,0z M28.56,289.202    C28.56,145.48,145.481,28.56,289.203,28.56l0,0v521.286l0,0C145.485,549.846,28.56,432.925,28.56,289.202z" fill="#181818" data-original="#000000" style="" class=""/>
	</g>
</g>
<g xmlns="http://www.w3.org/2000/svg">
</g>
<g xmlns="http://www.w3.org/2000/svg">
</g>
<g xmlns="http://www.w3.org/2000/svg">
</g>
<g xmlns="http://www.w3.org/2000/svg">
</g>
<g xmlns="http://www.w3.org/2000/svg">
</g>
<g xmlns="http://www.w3.org/2000/svg">
</g>
<g xmlns="http://www.w3.org/2000/svg">
</g>
<g xmlns="http://www.w3.org/2000/svg">
</g>
<g xmlns="http://www.w3.org/2000/svg">
</g>
<g xmlns="http://www.w3.org/2000/svg">
</g>
<g xmlns="http://www.w3.org/2000/svg">
</g>
<g xmlns="http://www.w3.org/2000/svg">
</g>
<g xmlns="http://www.w3.org/2000/svg">
</g>
<g xmlns="http://www.w3.org/2000/svg">
</g>
<g xmlns="http://www.w3.org/2000/svg">
</g>
</g></svg>
